<svg xmlns="http://www.w3.org/2000/svg" viewBox="0 0 1079.99 1079.96"><defs><style>.cls-1{fill:#001223;}</style></defs><title>external-link-icon</title><g id="Layer_2" data-name="Layer 2"><g id="Layer_1-2" data-name="Layer 1"><path class="cls-1" d="M539.94,1079.94q-209.46,0-418.93,0c-56.31,0-104-37.12-117.47-91.11A117.86,117.86,0,0,1,0,960.12Q0,539.94.07,119.77A119.47,119.47,0,0,1,119.65.17C218.13,0,316.62.13,415.1,0c3.94,0,5,1,4.94,5q-.23,54.73,0,109.48c0,4.52-1.1,5.74-5.7,5.73q-144-.21-288-.22c-5.09,0-6.54,1.13-6.54,6.43q.22,413.67,0,827.35c0,4.83.87,6.35,6.12,6.34q413.93-.23,827.85,0c5.29,0,6.11-1.56,6.1-6.36q-.21-144-.23-287.94c0-5,1.38-5.93,6.07-5.9q54.5.32,109,0c4.24,0,5.16,1.19,5.15,5.27q-.18,147-.12,294c-.07,67.73-53.13,120.74-121,120.79Q749.4,1080.06,539.94,1079.94Z"/><path class="cls-1" d="M601.47.11h5.33Q840.21.11,1073.65,0c4.83,0,6.34.88,6.34,6.13q-.26,233.67-.14,467.35v5.35c-2.45-.62-3.51-2.38-4.81-3.68Q980.81,381,886.72,286.7c-3.39-3.41-5-3.42-8.38,0Q710.76,454.57,543,622.28c-3.26,3.27-4.87,3.76-8.4.18q-38.43-39-77.38-77.42c-3.11-3.07-3.14-4.56,0-7.67Q625.07,369.79,792.72,202c4.58-4.59,4.58-4.59-.11-9.28Q698.94,99.09,605.26,5.44c-1.4-1.4-3.08-2.54-4.63-3.81Z"/></g></g></svg>