<svg xmlns="http://www.w3.org/2000/svg" viewBox="0 0 78.89 54.19">
    <g>
      <polygon points="51.52 44.67 51.28 44.04 47.78 54.19 48.25 54.19 51.52 44.67" />
      <polygon points="47.25 54.19 50.99 43.3 50.75 42.67 46.78 54.19 47.25 54.19" />
      <polygon points="52.78 54.19 55.21 54.19 53.92 50.87 52.78 54.19" />
      <polygon points="52.05 46.04 51.81 45.41 48.78 54.19 49.25 54.19 52.05 46.04" />
      <path d="M62.59,12.5l3.1-9-.39-.21-3.09,9Z" />
      <path d="M61.38,11.77l.38.22L64.84,3l-.4-.18Z" />
      <path d="M63,12.8l.37.27,3.15-9.14-.39-.22Z" />
      <path d="M67.8,4.72l-3.22,9.37.34.33L68.18,5Z" />
      <path d="M63.81,13.41l.36.3,3.19-9.27L67,4.19Z" />
      <path d="M50.46,41.93,37.8,9.27a93.54,93.54,0,0,1,16.49.34,19.92,19.92,0,0,1,6.63,1.92L64,2.64C58.41.27,52.26,0,48.15,0c-6,0-24.09.4-24.09.4L45.55,54.19h.7Z" />
      <path d="M68.6,5.3l-3.28,9.54.33.38L69,5.58Z" />
      <path d="M78.88,27.29C78.64,17.73,75.59,11,69.39,5.91L66,15.68a14.08,14.08,0,0,1,2.71,5.88c2,9.57-.66,15.43-3.42,19.15S56,45.89,56,45.89l3,8.3C73.82,51.19,79.12,36.89,78.88,27.29Z" />
      <polygon points="53.64 50.14 53.4 49.51 51.78 54.19 52.25 54.19 53.64 50.14" />
      <polygon points="52.58 47.4 52.34 46.77 49.78 54.19 50.25 54.19 52.58 47.4" />
      <polygon points="53.11 48.77 52.87 48.14 50.78 54.19 51.25 54.19 53.11 48.77" />
      <polygon points="22.77 3.33 5.27 54.19 5.73 54.19 23.01 3.95 22.77 3.33" />
      <polygon points="21.69 0.65 3.27 54.19 3.73 54.19 21.94 1.26 21.69 0.65" />
      <polygon points="23.3 4.68 6.27 54.19 6.73 54.19 23.55 5.29 23.3 4.68" />
      <polygon points="22.23 1.99 4.27 54.19 4.73 54.19 22.48 2.61 22.23 1.99" />
      <polygon points="23.84 6.02 7.27 54.19 7.73 54.19 24.09 6.64 23.84 6.02" />
      <polygon points="24.38 7.36 8.27 54.19 8.73 54.19 24.63 7.98 24.38 7.36" />
      <path d="M33.22,54.19h9.91L24.92,8.71,9.27,54.19h1.24l5.52-16H27.26ZM16.59,36.58l4.84-14,5.22,14Z" />
      <polygon points="0 54.19 2.73 54.19 19.39 5.76 0 54.19" />
    </g>
</svg>