<svg xmlns="http://www.w3.org/2000/svg" viewBox="0 0 119.96 116.95"><title>logo-4</title><g id="Layer_2" data-name="Layer 2"><g id="Layer_1-2" data-name="Layer 1"><path d="M73.33,117H46.63L22.58,105.37,5.94,84.5,0,58.47l5.94-26L22.58,11.58,46.63,0h26.7l24,11.58L114,32.45l5.94,26L114,84.5,97.37,105.37Zm-26-3H72.64l22.82-11,15.79-19.8,5.63-24.69-5.63-24.68L95.46,14,72.64,3H47.32L24.5,14,8.71,33.79,3.08,58.47,8.71,83.16,24.5,103Z"/><path d="M71.75,110.07,48.1,110,27,99.85l-.07-.09L12.3,81.44l-5.24-23,5.31-23L27,17.1,48.32,6.88H71.75L93,17.19l14.62,18.32,5.24,23-5.31,23.06L93,99.85l-.1.05Zm-23.32-1h23.1l20.8-10L106.74,81l5.13-22.52L106.74,36,92.33,17.9l-20.8-10H48.43l-20.81,10L13.22,36,8.08,58.47,13.22,81l14.4,18.06Z"/><polygon points="73.13 78.82 72.71 77.73 70.01 85.57 70.81 85.57 73.13 78.82"/><polygon points="68.81 85.57 72.07 76.08 71.65 75 68.01 85.57 68.81 85.57"/><polygon points="74.19 81.55 73.77 80.47 72.01 85.57 72.81 85.57 74.19 81.55"/><path d="M87.92,35.83l-.66-.42L84.11,44.6a7.49,7.49,0,0,1,.61.51Z"/><path d="M82.49,43.48c.22.14.44.27.65.42l3.11-9-.68-.34Z"/><path d="M88.89,36.49,85.63,46c.2.21.39.43.57.65L89.52,37Z"/><polygon points="74.01 85.57 75.74 85.57 74.83 83.2 74.01 85.57"/><path d="M99.41,58.67c-.22-9.28-3.12-15.85-9-20.92L87,47.7A14.33,14.33,0,0,1,89.28,53c2,9.56-.66,15.43-3.43,19.14-2.36,3.18-7.52,4.71-8.95,5.09l-.21.6,2.82,7.79C94.36,82.57,99.65,68.27,99.41,58.67Z"/><path d="M66.81,85.57,71,73.35,58.34,40.65A93.43,93.43,0,0,1,74.82,41a19.73,19.73,0,0,1,6.66,1.93l3-8.89C79,31.65,72.8,31.37,68.69,31.38c-6,0-24.1.4-24.1.4L66.08,85.57Z"/><polygon points="44.5 37.72 28.04 85.57 28.84 85.57 44.93 38.78 44.5 37.72"/><polygon points="43.43 35.03 26.04 85.57 26.84 85.57 43.85 36.1 43.43 35.03"/><polygon points="42.83 33.54 42.35 32.34 24.04 85.57 24.84 85.57 42.75 33.51 42.83 33.54"/><path d="M53.75,85.57h9.91L45.58,40.4,30,85.57h1l5.19-15H48.15Zm-17.19-16L42,54,47.8,69.6Z"/><polygon points="20.54 85.57 22.84 85.57 36.88 44.76 20.54 85.57"/></g></g></svg>