<svg xmlns="http://www.w3.org/2000/svg" viewBox="0 0 119.96 116.95"><title>logo-2</title><g id="Layer_2" data-name="Layer 2"><g id="Layer_1-2" data-name="Layer 1"><path d="M73.33,117H46.63L22.58,105.37,5.94,84.5,0,58.47l5.94-26L22.58,11.58,46.63,0h26.7l24,11.58L114,32.45l5.94,26L114,84.5,97.37,105.37Zm-26-3H72.64l22.82-11,15.79-19.8,5.63-24.69-5.63-24.68L95.46,14,72.64,3H47.32L24.5,14,8.71,33.79,3.08,58.47,8.71,83.16,24.5,103Z"/><path d="M71.7,109.82l-23.49,0L27.11,99.61,12.52,81.27,7.31,58.47l5.25-22.89L27.19,17.27,48.32,7.13l23.43,0,21.1,10.18,14.59,18.34,5.2,22.79-5.25,22.9L92.76,99.67Zm-23.33-.5H71.58L92.49,99.25,107,81.1l5.16-22.63L107,35.85,92.49,17.7,71.58,7.63H48.37L27.46,17.7,13,35.85,7.83,58.47,13,81.1,27.46,99.25Z"/><polygon points="72.06 76.05 71.81 75.42 68.32 85.57 68.78 85.57 72.06 76.05"/><polygon points="67.78 85.57 71.53 74.68 71.28 74.05 67.32 85.57 67.78 85.57"/><polygon points="73.32 85.57 75.74 85.57 74.46 82.25 73.32 85.57"/><polygon points="72.58 77.42 72.34 76.79 69.32 85.57 69.78 85.57 72.58 77.42"/><path d="M83.12,43.88l3.11-9-.39-.21-3.1,9Z"/><path d="M81.91,43.15l.39.22,3.07-8.95L85,34.24Z"/><path d="M83.56,44.18l.37.27,3.14-9.14-.39-.22Z"/><path d="M88.34,36.1l-3.23,9.37c.12.11.24.22.35.34l3.25-9.45Z"/><path d="M84.35,44.79l.36.3,3.18-9.27-.37-.25Z"/><path d="M71,73.32,58.34,40.65A93.43,93.43,0,0,1,74.82,41a19.78,19.78,0,0,1,6.63,1.92L84.51,34c-5.57-2.38-11.72-2.66-15.82-2.65-6,0-24.1.4-24.1.4L66.08,85.57h.7Z"/><path d="M89.14,36.68l-3.28,9.54.33.38L89.5,37Z"/><path d="M99.41,58.67c-.23-9.56-3.29-16.25-9.48-21.38l-3.36,9.77A14.18,14.18,0,0,1,89.28,53c2,9.56-.66,15.43-3.43,19.14s-9.34,5.18-9.34,5.18l3,8.3C94.36,82.57,99.65,68.27,99.41,58.67Z"/><polygon points="74.17 81.52 73.93 80.89 72.32 85.57 72.78 85.57 74.17 81.52"/><polygon points="73.11 78.78 72.87 78.15 70.32 85.57 70.78 85.57 73.11 78.78"/><polygon points="73.64 80.15 73.4 79.52 71.32 85.57 71.78 85.57 73.64 80.15"/><polygon points="43.3 34.71 25.8 85.57 26.27 85.57 43.55 35.33 43.3 34.71"/><polygon points="42.22 32.03 23.8 85.57 24.27 85.57 42.47 32.65 42.22 32.03"/><polygon points="43.84 36.06 26.8 85.57 27.27 85.57 44.09 36.68 43.84 36.06"/><polygon points="42.76 33.37 24.8 85.57 25.27 85.57 43.01 33.99 42.76 33.37"/><polygon points="44.38 37.4 27.8 85.57 28.27 85.57 44.62 38.02 44.38 37.4"/><polygon points="44.91 38.74 28.8 85.57 29.27 85.57 45.16 39.36 44.91 38.74"/><path d="M53.75,85.57h9.91L45.45,40.09,29.81,85.57h1.24l5.51-16H47.8ZM37.13,68,42,54l5.23,14Z"/><polygon points="20.54 85.57 23.27 85.57 39.92 37.15 20.54 85.57"/></g></g></svg>