<svg xmlns="http://www.w3.org/2000/svg" viewBox="0 0 304 304"><defs><style>.cls-1{fill:#9c92ac;fill-opacity:0.1;}.cls-2{fill:#cdc7d8;}</style></defs><title>back</title><g id="Layer_2" data-name="Layer 2"><g id="Layer_1-2" data-name="Layer 1"><path class="cls-1" d="M44.1,224a5,5,0,1,1,0,2H0v-2Zm160,48a5,5,0,1,1,0,2H82v-2Zm57.8-46a5,5,0,1,1,0-2H304v2Zm0,16a5,5,0,1,1,0-2H304v2Zm6.2-114a5,5,0,1,1,0,2H181.9a5,5,0,1,1,0-2ZM12.1,80a5,5,0,1,1,0,2H0V80Zm185.8,34a5,5,0,1,1,0-2h86.2a5,5,0,1,1,0,2ZM258,12.1a5,5,0,1,1-2,0V0h2Zm-64,208a5,5,0,1,1-2,0V165.9a5,5,0,1,1,2,0ZM242,21.9V80h62v2H240V21.9a5,5,0,1,1,2,0Zm16,16V64h46v2H256V37.9a5,5,0,1,1,2,0Zm-128,96V208h16v12.1a5,5,0,1,1-2,0V210H128V133.9a5,5,0,1,1,2,0ZM124.1,112a5,5,0,1,1,0,2H114v48H85.9a5,5,0,1,1,0-2H112V112Zm-6.2,130a5,5,0,1,1,0-2H176V165.9a5,5,0,1,1,2,0V242Zm-16-64a5,5,0,1,1,0-2H114v48h10.1a5,5,0,1,1,0,2H112V178ZM66,284.1a5,5,0,1,1-2,0V274H50v30H48V272H66ZM236.1,176a5,5,0,1,1,0,2H226v94h48v32h-2V274H224V176Zm25.8-30a5,5,0,1,1,0-2H274v44.1a5,5,0,1,1-2,0V146Zm-64,96a5,5,0,1,1,0-2H208V160h16V146H181.9a5,5,0,1,1,0-2H226v18H210v80ZM284.1,32a5,5,0,1,1,0,2H272V0h2V32ZM98,101.9V146H53.9a5,5,0,1,1,0-2H96V101.9a5,5,0,1,1,2,0ZM53.9,34a5,5,0,1,1,0-2H80V0h2V34ZM114,37.9V66H82v64H69.9a5,5,0,1,1,0-2H80V64h32V37.9a5,5,0,1,1,2,0ZM101.9,82a5,5,0,1,1,0-2H128V37.9a5,5,0,1,1,2,0V82Zm16-64a5,5,0,1,1,0-2H146V60.1a5,5,0,1,1-2,0V18ZM220.1,288a5,5,0,1,1,0,2H98v14H96V288ZM242,149.9V160h16v34H242v62h48v48h-2V258H240V192h16V162H240V149.9a5,5,0,1,1,2,0ZM53.9,18a5,5,0,1,1,0-2H64V2H48V0H66V18Zm112,32a5,5,0,1,1,0-2H192V0h50V2H194V50Zm-48-48a5,5,0,1,1-9.8-2h2.07a3,3,0,1,0,5.66,2,3,3,0,0,0,0-2H178V34H160V21.9a5,5,0,1,1,2,0V32h14V2Zm0,96a5,5,0,1,1,0-2H137l32-32h39V21.9a5,5,0,1,1,2,0V66H169.83l-32,32ZM146,188.1a5,5,0,1,1-2,0V111.59L175.59,80H224V21.9a5,5,0,1,1,2,0V82H176.41L146,112.41Zm16,32a5,5,0,1,1-2,0V120.59L184.59,96H300.1a5,5,0,0,1,3.9-3.9v2.07a3,3,0,0,0,0,5.66v2.07a5,5,0,0,1-3.9-3.9H185.41L162,121.41Zm-144-64a5,5,0,1,1-2,0v-3.51l48-48V48H96V0h2V50H66v55.41l-48,48ZM50,53.9V97.41l-48,48V208H28.1a5,5,0,1,1,0,2H0V144.59l48-48V53.9a5,5,0,1,1,2,0Zm-16,16V89.41l-34,34v-2.82l32-32V69.9a5,5,0,1,1,2,0ZM12.1,32a5,5,0,1,1,0,2H9.41L0,43.41V40.6L8.59,32ZM277.9,50a5,5,0,1,1,0-2h18.69L304,40.59v2.82L297.41,50Zm-16,160a5,5,0,1,1,0-2H288V136.59l16-16v2.82l-14,14V210Zm-208,32a5,5,0,1,1,0-2H64V217.41L40.59,194H21.9a5,5,0,1,1,0-2H41.41L66,216.59V242Zm150.2,14a5,5,0,1,1,0,2H96V201.4L56.6,162H37.9a5,5,0,1,1,0-2H57.4L98,200.6V256ZM53.9,258a5,5,0,1,1,0-2H80V209.41L48.59,178H21.9a5,5,0,1,1,0-2H49.41L82,208.59V258ZM34,39.8v1.61L9.41,66H0V64H8.59L32,40.59V0h2ZM2,300.1A5,5,0,0,1,5.9,304H3.83A3,3,0,0,0,0,302.17H0V256H18v48H16V258H2ZM34,241v63H32V242H0v-2H34ZM17,18H0V16H16V0h2V18Zm273-2h14v2H288V0h2ZM258,289v15h-2V290H242v14h-2V288h18ZM0,92.1A5,5,0,0,1,5.9,96,4.47,4.47,0,0,1,6,97a5,5,0,0,1-5,5,4.78,4.78,0,0,1-1-.1V99.83a3,3,0,1,0,2-5.66,3,3,0,0,0-2,0ZM80,272h2v32H80Zm37.9,32h-2.07a3,3,0,0,0-5.66,0H108.1a5,5,0,0,1,9.8,0ZM5.9,0A5,5,0,0,1,2,5.9,4.92,4.92,0,0,1,0,5.9V3.83A3,3,0,0,0,3.83,2a3,3,0,0,0,0-2ZM300.1,0h2.07A3,3,0,0,0,304,3.83h0V5.9A5,5,0,0,1,300.1,0ZM304,300.1v2.07a3,3,0,0,0-1.83,1.83H300.1A5,5,0,0,1,304,300.1ZM97,100a3,3,0,1,0-3-3A3,3,0,0,0,97,100Zm0-16a3,3,0,1,0-3-3A3,3,0,0,0,97,84Zm16,16a3,3,0,1,0-3-3A3,3,0,0,0,113,100Zm16,16a3,3,0,1,0-3-3A3,3,0,0,0,129,116Zm0,16a3,3,0,1,0-3-3A3,3,0,0,0,129,132ZM81,164a3,3,0,1,0-3-3A3,3,0,0,0,81,164Zm16,16a3,3,0,1,0-3-3A3,3,0,0,0,97,180Zm32,48a3,3,0,1,0-3-3A3,3,0,0,0,129,228Zm-16,16a3,3,0,1,0-3-3A3,3,0,0,0,113,244Zm32-16a3,3,0,1,0-3-3A3,3,0,0,0,145,228Zm0-32a3,3,0,1,0-3-3A3,3,0,0,0,145,196Zm16,32a3,3,0,1,0-3-3A3,3,0,0,0,161,228Zm32,16a3,3,0,1,0-3-3A3,3,0,0,0,193,244Zm0-16a3,3,0,1,0-3-3A3,3,0,0,0,193,228Zm-16-64a3,3,0,1,0-3-3A3,3,0,0,0,177,164Zm16,0a3,3,0,1,0-3-3A3,3,0,0,0,193,164Zm16,96a3,3,0,1,0-3-3A3,3,0,0,0,209,260Zm0,16a3,3,0,1,0-3-3A3,3,0,0,0,209,276Zm16,16a3,3,0,0,0,0-6h0a3,3,0,0,0,0,6Zm16-144a3,3,0,1,0-3-3A3,3,0,0,0,241,148Zm0,32a3,3,0,1,0-3-3A3,3,0,0,0,241,180Zm16-32a3,3,0,1,0-3-3A3,3,0,0,0,257,148Zm16-16a3,3,0,1,0-3-3A3,3,0,0,0,273,132Zm-96,0a3,3,0,1,0-3-3A3,3,0,0,0,177,132Zm0,16a3,3,0,1,0-3-3A3,3,0,0,0,177,148Zm16-32a3,3,0,1,0-3-3A3,3,0,0,0,193,116Zm96,0a3,3,0,1,0-3-3A3,3,0,0,0,289,116ZM273,52a3,3,0,1,0-3-3A3,3,0,0,0,273,52Zm16-16a3,3,0,1,0-3-3A3,3,0,0,0,289,36Zm-32,0a3,3,0,1,0-3-3A3,3,0,0,0,257,36Zm0-16a3,3,0,1,0-3-3A3,3,0,0,0,257,20Zm-16,0a3,3,0,1,0-3-3A3,3,0,0,0,241,20Zm-16,0a3,3,0,0,0,0-6h0a3,3,0,0,0,0,6Zm-16,0a3,3,0,1,0-3-3A3,3,0,0,0,209,20ZM49,36a3,3,0,1,0-3-3A3,3,0,0,0,49,36ZM17,36a3,3,0,1,0-3-3A3,3,0,0,0,17,36ZM49,52a3,3,0,1,0-3-3A3,3,0,0,0,49,52ZM33,68a3,3,0,1,0-3-3A3,3,0,0,0,33,68ZM49,20a3,3,0,1,0-3-3A3,3,0,0,0,49,20Zm0,240a3,3,0,1,0-3-3A3,3,0,0,0,49,260Zm16,32a3,3,0,1,0-3-3A3,3,0,0,0,65,292ZM49,228a3,3,0,1,0-3-3A3,3,0,0,0,49,228Zm0,16a3,3,0,1,0-3-3A3,3,0,0,0,49,244ZM33,212a3,3,0,1,0-3-3A3,3,0,0,0,33,212ZM113,36a3,3,0,1,0-3-3A3,3,0,0,0,113,36Zm16,0a3,3,0,1,0-3-3A3,3,0,0,0,129,36ZM113,20a3,3,0,1,0-3-3A3,3,0,0,0,113,20Zm32,48a3,3,0,1,0-3-3A3,3,0,0,0,145,68Zm16-16a3,3,0,1,0-3-3A3,3,0,0,0,161,52Zm0-32a3,3,0,1,0-3-3A3,3,0,0,0,161,20ZM273,196a3,3,0,1,0-3-3A3,3,0,0,0,273,196Zm-16,16a3,3,0,1,0-3-3A3,3,0,0,0,257,212Zm0,16a3,3,0,1,0-3-3A3,3,0,0,0,257,228Zm0,16a3,3,0,1,0-3-3A3,3,0,0,0,257,244ZM17,180a3,3,0,1,0-3-3A3,3,0,0,0,17,180Zm0,16a3,3,0,1,0-3-3A3,3,0,0,0,17,196Zm0-32a3,3,0,1,0-3-3A3,3,0,0,0,17,164Zm16,0a3,3,0,1,0-3-3A3,3,0,0,0,33,164ZM17,84a3,3,0,1,0-3-3A3,3,0,0,0,17,84Zm32,64a3,3,0,1,0-3-3A3,3,0,0,0,49,148Zm16-16a3,3,0,1,0-3-3A3,3,0,0,0,65,132Z"/><path class="cls-2" d="M17,28a5,5,0,1,0,5,5A5,5,0,0,0,17,28Zm0,8a3,3,0,1,1,3-3A3,3,0,0,1,17,36Z"/><path class="cls-2" d="M33,60a5,5,0,1,0,5,5A5,5,0,0,0,33,60Zm0,8a3,3,0,1,1,3-3A3,3,0,0,1,33,68Z"/><path class="cls-2" d="M49,44a5,5,0,1,0,5,5A5,5,0,0,0,49,44Zm0,8a3,3,0,1,1,3-3A3,3,0,0,1,49,52Z"/><path class="cls-2" d="M49,28a5,5,0,1,0,5,5A5,5,0,0,0,49,28Zm0,8a3,3,0,1,1,3-3A3,3,0,0,1,49,36Z"/><path class="cls-2" d="M113,28a5,5,0,1,0,5,5A5,5,0,0,0,113,28Zm0,8a3,3,0,1,1,3-3A3,3,0,0,1,113,36Z"/><path class="cls-2" d="M113,12a5,5,0,1,0,5,5A5,5,0,0,0,113,12Zm0,8a3,3,0,1,1,3-3A3,3,0,0,1,113,20Z"/><path class="cls-2" d="M161,12a5,5,0,1,0,5,5A5,5,0,0,0,161,12Zm0,8a3,3,0,1,1,3-3A3,3,0,0,1,161,20Z"/><path class="cls-2" d="M209,12a5,5,0,1,0,5,5A5,5,0,0,0,209,12Zm0,8a3,3,0,1,1,3-3A3,3,0,0,1,209,20Z"/><path class="cls-2" d="M225,12a5,5,0,1,0,5,5A5,5,0,0,0,225,12Zm0,8a3,3,0,1,1,3-3A3,3,0,0,1,225,20Z"/><path class="cls-2" d="M241,12a5,5,0,1,0,5,5A5,5,0,0,0,241,12Zm0,8a3,3,0,1,1,3-3A3,3,0,0,1,241,20Z"/><path class="cls-2" d="M129,28a5,5,0,1,0,5,5A5,5,0,0,0,129,28Zm0,8a3,3,0,1,1,3-3A3,3,0,0,1,129,36Z"/><path class="cls-2" d="M161,44a5,5,0,1,0,5,5A5,5,0,0,0,161,44Zm0,8a3,3,0,1,1,3-3A3,3,0,0,1,161,52Z"/><path class="cls-2" d="M145,60a5,5,0,1,0,5,5A5,5,0,0,0,145,60Zm0,8a3,3,0,1,1,3-3A3,3,0,0,1,145,68Z"/><path class="cls-2" d="M97,76a5,5,0,1,0,5,5A5,5,0,0,0,97,76Zm0,8a3,3,0,1,1,3-3A3,3,0,0,1,97,84Z"/><path class="cls-2" d="M97,92a5,5,0,1,0,5,5A5,5,0,0,0,97,92Zm0,8a3,3,0,1,1,3-3A3,3,0,0,1,97,100Z"/><path class="cls-2" d="M113,92a5,5,0,1,0,5,5A5,5,0,0,0,113,92Zm0,8a3,3,0,1,1,3-3A3,3,0,0,1,113,100Z"/><path class="cls-2" d="M65,124a5,5,0,1,0,5,5A5,5,0,0,0,65,124Zm0,8a3,3,0,1,1,3-3A3,3,0,0,1,65,132Z"/><path class="cls-2" d="M17,76a5,5,0,1,0,5,5A5,5,0,0,0,17,76Zm0,8a3,3,0,1,1,3-3A3,3,0,0,1,17,84Z"/><path class="cls-2" d="M33,156a5,5,0,1,0,5,5A5,5,0,0,0,33,156Zm0,8a3,3,0,1,1,3-3A3,3,0,0,1,33,164Z"/><path class="cls-2" d="M49,140a5,5,0,1,0,5,5A5,5,0,0,0,49,140Zm0,8a3,3,0,1,1,3-3A3,3,0,0,1,49,148Z"/><path class="cls-2" d="M17,156.05a5,5,0,1,0,5,5A5,5,0,0,0,17,156.05Zm0,8a3,3,0,1,1,3-3A3,3,0,0,1,17,164.05Z"/><path class="cls-2" d="M17,172a5,5,0,1,0,5,5A5,5,0,0,0,17,172Zm0,8a3,3,0,1,1,3-3A3,3,0,0,1,17,180Z"/><path class="cls-2" d="M17,188a5,5,0,1,0,5,5A5,5,0,0,0,17,188Zm0,8a3,3,0,1,1,3-3A3,3,0,0,1,17,196Z"/><path class="cls-2" d="M33,204a5,5,0,1,0,5,5A5,5,0,0,0,33,204Zm0,8a3,3,0,1,1,3-3A3,3,0,0,1,33,212Z"/><path class="cls-2" d="M49,220a5,5,0,1,0,5,5A5,5,0,0,0,49,220Zm0,8a3,3,0,1,1,3-3A3,3,0,0,1,49,228Z"/><path class="cls-2" d="M49,236a5,5,0,1,0,5,5A5,5,0,0,0,49,236Zm0,8a3,3,0,1,1,3-3A3,3,0,0,1,49,244Z"/><path class="cls-2" d="M49,252a5,5,0,1,0,5,5A5,5,0,0,0,49,252Zm0,8a3,3,0,1,1,3-3A3,3,0,0,1,49,260Z"/><path class="cls-2" d="M65,284a5,5,0,1,0,5,5A5,5,0,0,0,65,284Zm0,8a3,3,0,1,1,3-3A3,3,0,0,1,65,292Z"/><path class="cls-2" d="M113,236a5,5,0,1,0,5,5A5,5,0,0,0,113,236Zm0,8a3,3,0,1,1,3-3A3,3,0,0,1,113,244Z"/><path class="cls-2" d="M49,12a5,5,0,1,0,5,5A5,5,0,0,0,49,12Zm0,8a3,3,0,1,1,3-3A3,3,0,0,1,49,20Z"/><path class="cls-2" d="M257,236a5,5,0,1,0,5,5A5,5,0,0,0,257,236Zm0,8a3,3,0,1,1,3-3A3,3,0,0,1,257,244Z"/><path class="cls-2" d="M257,204a5,5,0,1,0,5,5A5,5,0,0,0,257,204Zm0,8a3,3,0,1,1,3-3A3,3,0,0,1,257,212Z"/><path class="cls-2" d="M273,188a5,5,0,1,0,5,5A5,5,0,0,0,273,188Zm0,8a3,3,0,1,1,3-3A3,3,0,0,1,273,196Z"/><path class="cls-2" d="M241,172a5,5,0,1,0,5,5A5,5,0,0,0,241,172Zm0,8a3,3,0,1,1,3-3A3,3,0,0,1,241,180Z"/><path class="cls-2" d="M241,140a5,5,0,1,0,5,5A5,5,0,0,0,241,140Zm0,8a3,3,0,1,1,3-3A3,3,0,0,1,241,148Z"/><path class="cls-2" d="M257,140a5,5,0,1,0,5,5A5,5,0,0,0,257,140Zm0,8a3,3,0,1,1,3-3A3,3,0,0,1,257,148Z"/><path class="cls-2" d="M273,124a5,5,0,1,0,5,5A5,5,0,0,0,273,124Zm0,8a3,3,0,1,1,3-3A3,3,0,0,1,273,132Z"/><path class="cls-2" d="M289,108a5,5,0,1,0,5,5A5,5,0,0,0,289,108Zm0,8a3,3,0,1,1,3-3A3,3,0,0,1,289,116Z"/><path class="cls-2" d="M273,44a5,5,0,1,0,5,5A5,5,0,0,0,273,44Zm0,8a3,3,0,1,1,3-3A3,3,0,0,1,273,52Z"/><path class="cls-2" d="M257,28a5,5,0,1,0,5,5A5,5,0,0,0,257,28Zm0,8a3,3,0,1,1,3-3A3,3,0,0,1,257,36Z"/><path class="cls-2" d="M257,12a5,5,0,1,0,5,5A5,5,0,0,0,257,12Zm0,8a3,3,0,1,1,3-3A3,3,0,0,1,257,20Z"/><path class="cls-2" d="M289,28a5,5,0,1,0,5,5A5,5,0,0,0,289,28Zm0,8a3,3,0,1,1,3-3A3,3,0,0,1,289,36Z"/><path class="cls-2" d="M257,220a5,5,0,1,0,5,5A5,5,0,0,0,257,220Zm0,8a3,3,0,1,1,3-3A3,3,0,0,1,257,228Z"/><path class="cls-2" d="M225,284a5,5,0,1,0,5,5A5,5,0,0,0,225,284Zm0,8a3,3,0,1,1,3-3A3,3,0,0,1,225,292Z"/><path class="cls-2" d="M209,268a5,5,0,1,0,5,5A5,5,0,0,0,209,268Zm0,8a3,3,0,1,1,3-3A3,3,0,0,1,209,276Z"/><path class="cls-2" d="M209,252a5,5,0,1,0,5,5A5,5,0,0,0,209,252Zm0,8a3,3,0,1,1,3-3A3,3,0,0,1,209,260Z"/><path class="cls-2" d="M193,236a5,5,0,1,0,5,5A5,5,0,0,0,193,236Zm0,8a3,3,0,1,1,3-3A3,3,0,0,1,193,244Z"/><path class="cls-2" d="M193,220a5,5,0,1,0,5,5A5,5,0,0,0,193,220Zm0,8a3,3,0,1,1,3-3A3,3,0,0,1,193,228Z"/><path class="cls-2" d="M161,220a5,5,0,1,0,5,5A5,5,0,0,0,161,220Zm0,8a3,3,0,1,1,3-3A3,3,0,0,1,161,228Z"/><path class="cls-2" d="M145,220a5,5,0,1,0,5,5A5,5,0,0,0,145,220Zm0,8a3,3,0,1,1,3-3A3,3,0,0,1,145,228Z"/><path class="cls-2" d="M129,220a5,5,0,1,0,5,5A5,5,0,0,0,129,220Zm0,8a3,3,0,1,1,3-3A3,3,0,0,1,129,228Z"/><path class="cls-2" d="M145,188a5,5,0,1,0,5,5A5,5,0,0,0,145,188Zm0,8a3,3,0,1,1,3-3A3,3,0,0,1,145,196Z"/><path class="cls-2" d="M129,124a5,5,0,1,0,5,5A5,5,0,0,0,129,124Zm0,8a3,3,0,1,1,3-3A3,3,0,0,1,129,132Z"/><path class="cls-2" d="M177,124a5,5,0,1,0,5,5A5,5,0,0,0,177,124Zm0,8a3,3,0,1,1,3-3A3,3,0,0,1,177,132Z"/><path class="cls-2" d="M193,108a5,5,0,1,0,5,5A5,5,0,0,0,193,108Zm0,8a3,3,0,1,1,3-3A3,3,0,0,1,193,116Z"/><path class="cls-2" d="M177,140a5,5,0,1,0,5,5A5,5,0,0,0,177,140Zm0,8a3,3,0,1,1,3-3A3,3,0,0,1,177,148Z"/><path class="cls-2" d="M177,156a5,5,0,1,0,5,5A5,5,0,0,0,177,156Zm0,8a3,3,0,1,1,3-3A3,3,0,0,1,177,164Z"/><path class="cls-2" d="M193,156a5,5,0,1,0,5,5A5,5,0,0,0,193,156Zm0,8a3,3,0,1,1,3-3A3,3,0,0,1,193,164Z"/><path class="cls-2" d="M129,108a5,5,0,1,0,5,5A5,5,0,0,0,129,108Zm0,8a3,3,0,1,1,3-3A3,3,0,0,1,129,116Z"/><path class="cls-2" d="M81,156.05a5,5,0,1,0,5,5A5,5,0,0,0,81,156.05Zm0,8a3,3,0,1,1,3-3A3,3,0,0,1,81,164.05Z"/><path class="cls-2" d="M97,172a5,5,0,1,0,5,5A5,5,0,0,0,97,172Zm0,8a3,3,0,1,1,3-3A3,3,0,0,1,97,180Z"/></g></g></svg>